<svg width="42" height="41" viewBox="0 0 42 41" fill="none" xmlns="http://www.w3.org/2000/svg">
<path d="M35.2829 1H6.8838C3.63944 1 1 3.60307 1 6.80273V34.8106C1 38.0102 3.63944 40.6133 6.8838 40.6133H35.2829C38.5273 40.6133 41.1667 38.0102 41.1667 34.8106V6.80273C41.1667 3.60307 38.5273 1 35.2829 1ZM38.8132 34.8106C38.8132 36.7303 37.2295 38.2922 35.2829 38.2922H6.8838C4.93724 38.2922 3.35352 36.7303 3.35352 34.8106V6.80273C3.35352 4.88299 4.93724 3.32109 6.8838 3.32109H35.2829C37.2295 3.32109 38.8132 4.88299 38.8132 6.80273V34.8106Z" fill="#070707" stroke="#070707" stroke-width="0.5"/>
</svg>
